#N canvas 679 227 670 311 10;
#N canvas 707 383 428 198 audio_in 0;
#X obj -1682 -1297 outlet~;
#X obj -1635 -1398 adc~;
#X obj -1681 -1419 hradio 15 1 0 3 empty empty empty 0 -8 0 10 -262144
-1 -1 2;
#X msg -1588 -1443 start;
#X msg -1582 -1423 stop;
#X obj -1588 -1400 readsf~ 2;
#X msg -1484 -1443 open samples/guitar_sample_1.wav;
#X msg -1484 -1421 open samples/guitar_sample_2.wav;
#X msg -1484 -1401 open samples/bass_sample_1.wav;
#X msg -1484 -1381 open samples/bass_sample_2.wav;
#X msg -1483 -1359 open samples/solo.wav;
#X msg -1482 -1338 open samples/chords.wav;
#X msg -1482 -1319 open samples/arp+chords.wav;
#X obj -1681 -1331 multiplex~ . . .;
#X connect 1 0 13 1;
#X connect 2 0 13 0;
#X connect 3 0 5 0;
#X connect 4 0 5 0;
#X connect 5 0 13 2;
#X connect 5 1 13 2;
#X connect 6 0 5 0;
#X connect 7 0 5 0;
#X connect 8 0 5 0;
#X connect 9 0 5 0;
#X connect 10 0 5 0;
#X connect 11 0 5 0;
#X connect 12 0 5 0;
#X connect 13 0 0 0;
#X restore 101 71 pd audio_in;
#X obj 19 14 tgl 15 0 empty empty empty 17 7 0 10 -262144 -1 -1 0 1
;
#X msg 19 35 \; pd dsp \$1;
#N canvas 619 184 725 504 flanger 0;
#X obj -38 -144 inlet~;
#X obj -38 292 outlet~;
#X obj -10 32 +~ 1;
#X obj -10 60 /~ 2;
#X obj -38 236 +~;
#X obj -38 264 /~ 2;
#X floatatom 211 -97 5 0 0 0 - - -;
#X floatatom 213 -17 5 0 0 0 - - -;
#X floatatom 216 151 5 0 0 0 - - -;
#X obj 213 -121 hsl 90 20 0 3 0 1 empty empty empty -2 -8 0 10 -262144
-1 -1 1500 1;
#X obj 216 -47 hsl 90 20 0 30 0 1 empty empty empty -2 -8 0 10 -262144
-1 -1 2100 1;
#X obj 219 37 hsl 90 20 0 1 0 1 empty empty empty -2 -8 0 10 -262144
-1 -1 3900 1;
#X text 207 -137 Speed;
#X text 211 -62 Width;
#X text 213 20 Manual;
#X floatatom 329 122 5 0 0 0 - - -;
#X obj 329 93 * -1;
#X obj 329 66 - 30;
#X obj 216 115 *;
#X text 374 73 At minimum width \, manual sweeps the entire delay space
\; at maximum width \, manual does nothing.;
#X msg 231 85 bang;
#X floatatom 219 231 5 0 0 0 - - -;
#X obj 222 201 hsl 90 20 -0.9 0.9 0 1 empty empty empty -2 -8 0 10
-262144 -1 -1 4600 1;
#X text 217 186 Regen;
#X obj -13 -68 +~;
#X obj -13 -39 delwrite~ fl_delayed_in 50;
#X obj -3 234 s~ fl_delayed_out;
#X obj 50 3 r fl_speed;
#X obj 30 89 r fl_width;
#X obj 34 135 r fl_manual;
#X obj 254 -98 s fl_speed;
#X obj 257 -17 s fl_width;
#X obj 329 36 r fl_width;
#X obj 255 150 s fl_manual;
#X obj 263 231 s fl_regen;
#X obj 54 -89 r fl_regen;
#X obj 19 -126 r~ fl_delayed_out;
#X obj -11 187 vd~ fl_delayed_in;
#X obj 20 -88 *~ 0;
#X obj -10 4 osc~ 0.5;
#X obj -11 89 *~ 7;
#X obj -11 136 +~ 10;
#X connect 0 0 4 0;
#X connect 0 0 24 0;
#X connect 2 0 3 0;
#X connect 3 0 40 0;
#X connect 4 0 5 0;
#X connect 5 0 1 0;
#X connect 9 0 6 0;
#X connect 9 0 30 0;
#X connect 10 0 7 0;
#X connect 10 0 31 0;
#X connect 11 0 18 0;
#X connect 15 0 18 1;
#X connect 15 0 20 0;
#X connect 16 0 15 0;
#X connect 17 0 16 0;
#X connect 18 0 8 0;
#X connect 18 0 33 0;
#X connect 20 0 18 0;
#X connect 22 0 21 0;
#X connect 22 0 34 0;
#X connect 24 0 25 0;
#X connect 27 0 39 0;
#X connect 28 0 40 1;
#X connect 29 0 41 1;
#X connect 32 0 17 0;
#X connect 35 0 38 1;
#X connect 36 0 38 0;
#X connect 37 0 4 1;
#X connect 37 0 26 0;
#X connect 38 0 24 1;
#X connect 39 0 2 0;
#X connect 40 0 41 0;
#X connect 41 0 37 0;
#X restore 121 154 pd flanger;
#N canvas 757 421 450 300 audio_out 0;
#X obj 86 98 dac~;
#X obj 94 54 inlet~;
#X connect 1 0 0 0;
#X connect 1 0 0 1;
#X restore 101 221 pd audio_out;
#X obj 238 88 hradio 15 1 0 5 empty empty empty 0 -8 0 10 -262144 -1
-1 4;
#N canvas 205 92 563 287 tremolo 0;
#X obj -1 -2 inlet~;
#X obj 1 193 outlet~;
#X obj 54 67 clip~ -1 1;
#X obj 0 50 *~;
#X obj 54 146 +~;
#X obj 104 129 expr 1-$f1;
#X floatatom 104 154 5 0 0 0 - - -;
#X floatatom 395 14 5 0 0 0 - - -;
#X floatatom 397 94 5 0 0 0 - - -;
#X floatatom 400 178 5 0 0 0 - - -;
#X obj 397 -10 hsl 90 20 0.5 25 0 1 empty empty empty -2 -8 0 10 -262144
-1 -1 400 1;
#X obj 400 64 hsl 90 20 1 20 1 1 empty empty empty -2 -8 0 10 -262144
-1 -1 0 1;
#X obj 403 148 hsl 90 20 0 0.5 0 1 empty empty empty -2 -8 0 10 -262144
-1 -1 6000 1;
#X obj 53 33 *~ 1;
#X text 391 -26 Rate;
#X obj 438 13 s tr_rate;
#X text 395 49 Shape;
#X obj 441 94 s tr_shape;
#X text 397 131 Depth;
#X obj 437 177 s tr_depth;
#X obj 105 1 r tr_rate;
#X obj 93 31 r tr_shape;
#X obj 104 101 r tr_depth;
#X obj 55 102 *~ 0.2;
#X text 129 67 square wave as shape increases.;
#X text 129 59 The sine wave tends to become a;
#X text 152 160 is multiplied by a number;
#X text 153 173 between 1-2*depth and 1;
#X text 153 148 Adjusts so that the input wave;
#X obj 53 1 osc~ 10;
#X connect 0 0 3 0;
#X connect 2 0 23 0;
#X connect 3 0 1 0;
#X connect 4 0 3 1;
#X connect 5 0 4 1;
#X connect 5 0 6 0;
#X connect 10 0 7 0;
#X connect 10 0 15 0;
#X connect 11 0 8 0;
#X connect 11 0 17 0;
#X connect 12 0 9 0;
#X connect 12 0 19 0;
#X connect 13 0 2 0;
#X connect 20 0 29 0;
#X connect 21 0 13 1;
#X connect 22 0 23 1;
#X connect 22 0 5 0;
#X connect 23 0 4 0;
#X connect 29 0 13 0;
#X restore 197 155 pd tremolo;
#N canvas 159 248 585 305 wahwah 0;
#X obj 15 -206 inlet~;
#X obj 15 -40 outlet~;
#X obj 15 -79 vcf~;
#X obj 137 -114 +~ 1;
#X obj 137 -93 *~ 0.5;
#X obj 137 -135 osc~ 2;
#X obj 192 -41 -;
#X obj 257 -41 bang;
#X obj 138 -8 +~ 200;
#X obj 138 -41 *~ 1500;
#X obj 54 -78 r wah_q;
#X floatatom 304 -177 5 0 0 0 - - -;
#X floatatom 306 -97 5 0 0 0 - - -;
#X floatatom 305 -25 5 0 0 0 - - -;
#X obj 306 -201 hsl 90 20 0.5 4 0 1 empty empty empty -2 -8 0 10 -262144
-1 -1 5300 1;
#X obj 309 -127 hsl 90 20 0 700 0 1 empty empty empty -2 -8 0 10 -262144
-1 -1 2600 1;
#X obj 308 -55 hsl 90 20 0 20 0 1 empty empty empty -2 -8 0 10 -262144
-1 -1 600 1;
#X floatatom 435 -100 5 0 0 0 - - -;
#X obj 438 -130 hsl 90 20 700 6000 0 1 empty empty empty -2 -8 0 10
-262144 -1 -1 8900 1;
#X text 304 -142 Min Freq.;
#X text 433 -145 Max Freq.;
#X obj 350 -97 s wah_min_f;
#X obj 479 -100 s wah_max_f;
#X obj 342 -26 s wah_q;
#X text 302 -72 Q;
#X text 300 -217 Speed;
#X obj 347 -178 s wah_speed;
#X obj 185 -135 r wah_speed;
#X text 188 -118 comment;
#X obj 193 -11 r wah_min_f;
#X obj 192 -70 r wah_max_f;
#X connect 0 0 2 0;
#X connect 2 0 1 0;
#X connect 3 0 4 0;
#X connect 4 0 9 0;
#X connect 5 0 3 0;
#X connect 6 0 9 1;
#X connect 7 0 6 0;
#X connect 8 0 2 1;
#X connect 9 0 8 0;
#X connect 10 0 2 2;
#X connect 14 0 11 0;
#X connect 14 0 26 0;
#X connect 15 0 12 0;
#X connect 15 0 21 0;
#X connect 16 0 13 0;
#X connect 16 0 23 0;
#X connect 18 0 17 0;
#X connect 18 0 22 0;
#X connect 27 0 5 0;
#X connect 29 0 7 0;
#X connect 29 0 6 1;
#X connect 29 0 8 1;
#X connect 30 0 6 0;
#X restore 276 156 pd wahwah;
#N canvas 876 406 366 234 vibrato 0;
#X obj 9 -49 inlet~;
#X obj 10 139 outlet~;
#X obj 10 -11 delwrite~ vib_delayed_in 50;
#X obj 11 110 vd~ vib_delayed_in;
#X obj 11 21 osc~ 2;
#X obj 12 49 *~ 1;
#X obj 12 76 +~ 2;
#X floatatom 223 30 5 0 0 0 - - -;
#X floatatom 225 110 5 0 0 0 - - -;
#X obj 225 6 hsl 90 20 1 3 0 1 empty empty empty -2 -8 0 10 -262144
-1 -1 4500 1;
#X obj 228 80 hsl 90 20 1 5 0 1 empty empty empty -2 -8 0 10 -262144
-1 -1 0 1;
#X text 219 -10 Speed;
#X obj 58 20 r vib_speed;
#X obj 267 29 s vib_speed;
#X obj 269 110 s vib_depth;
#X text 223 65 Depth;
#X obj 62 50 r vib_depth;
#X obj 60 75 * 2;
#X connect 0 0 2 0;
#X connect 3 0 1 0;
#X connect 4 0 5 0;
#X connect 5 0 6 0;
#X connect 6 0 3 0;
#X connect 9 0 7 0;
#X connect 9 0 13 0;
#X connect 10 0 8 0;
#X connect 10 0 14 0;
#X connect 12 0 4 0;
#X connect 16 0 5 1;
#X connect 16 0 17 0;
#X connect 17 0 6 1;
#X restore 356 156 pd vibrato;
#X obj 102 114 demultiplex~ . . . . .;
#X connect 0 0 9 0;
#X connect 1 0 2 0;
#X connect 3 0 4 0;
#X connect 5 0 9 0;
#X connect 6 0 4 0;
#X connect 7 0 4 0;
#X connect 8 0 4 0;
#X connect 9 0 4 0;
#X connect 9 1 3 0;
#X connect 9 2 6 0;
#X connect 9 3 7 0;
#X connect 9 4 8 0;
