#N canvas 779 173 625 353 10;
#N canvas 847 590 428 198 audio_in 1;
#X obj -1682 -1297 outlet~;
#X obj -1635 -1398 adc~;
#X obj -1681 -1419 hradio 15 1 1 3 empty empty empty 0 -8 0 10 -262144
-1 -1 1;
#X msg -1588 -1443 start;
#X msg -1582 -1423 stop;
#X obj -1588 -1400 readsf~ 2;
#X msg -1484 -1443 open samples/guitar_sample_1.wav;
#X msg -1484 -1421 open samples/guitar_sample_2.wav;
#X msg -1484 -1401 open samples/bass_sample_1.wav;
#X msg -1484 -1381 open samples/bass_sample_2.wav;
#X msg -1483 -1359 open samples/solo.wav;
#X msg -1482 -1338 open samples/chords.wav;
#X msg -1482 -1319 open samples/arp+chords.wav;
#X obj -1681 -1331 multiplex~ . . .;
#X connect 1 0 13 1;
#X connect 2 0 13 0;
#X connect 3 0 5 0;
#X connect 4 0 5 0;
#X connect 5 0 13 2;
#X connect 5 1 13 2;
#X connect 6 0 5 0;
#X connect 7 0 5 0;
#X connect 8 0 5 0;
#X connect 9 0 5 0;
#X connect 10 0 5 0;
#X connect 11 0 5 0;
#X connect 12 0 5 0;
#X connect 13 0 0 0;
#X restore 98 28 pd audio_in;
#N canvas 905 325 757 487 flanger 0;
#X obj -38 -144 inlet~;
#X obj -38 292 outlet~;
#X obj -10 32 +~ 1;
#X obj -10 60 /~ 2;
#X obj -38 236 +~;
#X obj -38 264 /~ 2;
#X floatatom 211 -97 5 0 0 0 - - -;
#X floatatom 213 -17 5 0 0 0 - - -;
#X floatatom 216 151 5 0 0 0 - - -;
#X obj 213 -121 hsl 90 20 0 3 0 1 empty empty empty -2 -8 0 10 -262144
-1 -1 1500 1;
#X obj 216 -47 hsl 90 20 0 30 0 1 empty empty empty -2 -8 0 10 -262144
-1 -1 6300 1;
#X obj 219 37 hsl 90 20 0 1 0 1 empty empty empty -2 -8 0 10 -262144
-1 -1 3900 1;
#X text 207 -137 Speed;
#X text 211 -62 Width;
#X text 213 20 Manual;
#X floatatom 329 122 5 0 0 0 - - -;
#X obj 329 93 * -1;
#X obj 329 66 - 30;
#X obj 216 115 *;
#X text 374 73 At minimum width \, manual sweeps the entire delay space
\; at maximum width \, manual does nothing.;
#X msg 231 85 bang;
#X floatatom 219 231 5 0 0 0 - - -;
#X obj 222 201 hsl 90 20 -0.9 0.9 0 1 empty empty empty -2 -8 0 10
-262144 -1 -1 4600 1;
#X text 217 186 Regen;
#X obj -13 -68 +~;
#X obj -13 -39 delwrite~ fl_delayed_in 50;
#X obj -3 234 s~ fl_delayed_out;
#X obj 50 3 r fl_speed;
#X obj 30 89 r fl_width;
#X obj 34 135 r fl_manual;
#X obj 254 -98 s fl_speed;
#X obj 257 -17 s fl_width;
#X obj 329 36 r fl_width;
#X obj 255 150 s fl_manual;
#X obj 263 231 s fl_regen;
#X obj 54 -89 r fl_regen;
#X obj 19 -126 r~ fl_delayed_out;
#X obj -11 187 vd~ fl_delayed_in;
#X obj 20 -88 *~ 0;
#X obj -10 4 osc~ 0.5;
#X obj -11 89 *~ 7;
#X obj -11 136 +~ 10;
#X obj 322 -115 r val_1;
#X obj 333 -34 r val_2;
#X obj 162 99 r val_3;
#X obj 341 214 r val_4;
#X connect 0 0 4 0;
#X connect 0 0 24 0;
#X connect 2 0 3 0;
#X connect 3 0 40 0;
#X connect 4 0 5 0;
#X connect 5 0 1 0;
#X connect 9 0 6 0;
#X connect 9 0 30 0;
#X connect 10 0 7 0;
#X connect 10 0 31 0;
#X connect 11 0 18 0;
#X connect 15 0 18 1;
#X connect 15 0 20 0;
#X connect 16 0 15 0;
#X connect 17 0 16 0;
#X connect 18 0 8 0;
#X connect 18 0 33 0;
#X connect 20 0 18 0;
#X connect 22 0 21 0;
#X connect 22 0 34 0;
#X connect 24 0 25 0;
#X connect 27 0 39 0;
#X connect 28 0 40 1;
#X connect 29 0 41 1;
#X connect 32 0 17 0;
#X connect 35 0 38 1;
#X connect 36 0 38 0;
#X connect 37 0 4 1;
#X connect 37 0 26 0;
#X connect 38 0 24 1;
#X connect 39 0 2 0;
#X connect 40 0 41 0;
#X connect 41 0 37 0;
#X connect 42 0 30 0;
#X connect 43 0 31 0;
#X connect 44 0 18 0;
#X connect 45 0 34 0;
#X restore 123 170 pd flanger;
#X obj 267 44 hradio 15 1 0 7 empty empty empty 0 -8 0 10 -262144 -1
-1 0;
#N canvas 205 92 571 287 tremolo 0;
#X obj -1 -2 inlet~;
#X obj 1 193 outlet~;
#X obj 54 67 clip~ -1 1;
#X obj 0 50 *~;
#X obj 54 146 +~;
#X obj 104 129 expr 1-$f1;
#X floatatom 104 154 5 0 0 0 - - -;
#X floatatom 395 14 5 0 0 0 - - -;
#X floatatom 397 94 5 0 0 0 - - -;
#X floatatom 400 178 5 0 0 0 - - -;
#X obj 397 -10 hsl 90 20 0.5 25 0 1 empty empty empty -2 -8 0 10 -262144
-1 -1 400 1;
#X obj 400 64 hsl 90 20 1 20 1 1 empty empty empty -2 -8 0 10 -262144
-1 -1 0 1;
#X obj 403 148 hsl 90 20 0 0.5 0 1 empty empty empty -2 -8 0 10 -262144
-1 -1 6000 1;
#X obj 53 33 *~ 1;
#X text 395 49 Shape;
#X obj 441 94 s tr_shape;
#X text 397 131 Depth;
#X obj 437 177 s tr_depth;
#X obj 93 31 r tr_shape;
#X obj 104 101 r tr_depth;
#X obj 55 102 *~ 0.2;
#X text 129 67 square wave as shape increases.;
#X text 129 59 The sine wave tends to become a;
#X text 152 160 is multiplied by a number;
#X text 153 173 between 1-2*depth and 1;
#X text 153 148 Adjusts so that the input wave;
#X obj 53 1 osc~ 10;
#X text 391 -26 Speed;
#X obj 438 13 s tr_speed;
#X obj 105 1 r tr_speed;
#X obj 509 -4 r val_1;
#X obj 509 77 r val_2;
#X obj 512 160 r val_3;
#X connect 0 0 3 0;
#X connect 2 0 20 0;
#X connect 3 0 1 0;
#X connect 4 0 3 1;
#X connect 5 0 4 1;
#X connect 5 0 6 0;
#X connect 10 0 7 0;
#X connect 10 0 28 0;
#X connect 11 0 8 0;
#X connect 11 0 15 0;
#X connect 12 0 9 0;
#X connect 12 0 17 0;
#X connect 13 0 2 0;
#X connect 18 0 13 1;
#X connect 19 0 20 1;
#X connect 19 0 5 0;
#X connect 20 0 4 0;
#X connect 26 0 13 0;
#X connect 29 0 26 0;
#X connect 30 0 28 0;
#X connect 31 0 15 0;
#X connect 32 0 17 0;
#X restore 195 171 pd tremolo;
#N canvas 139 139 581 247 wahwah 0;
#X obj 15 -206 inlet~;
#X obj 15 -40 outlet~;
#X obj 15 -79 vcf~;
#X obj 137 -114 +~ 1;
#X obj 137 -93 *~ 0.5;
#X obj 137 -135 osc~ 2;
#X obj 192 -41 -;
#X obj 257 -41 bang;
#X obj 138 -8 +~ 200;
#X obj 138 -41 *~ 1500;
#X obj 54 -78 r wah_q;
#X floatatom 304 -177 5 0 0 0 - - -;
#X floatatom 306 -31 5 0 0 0 - - -;
#X floatatom 305 -105 5 0 0 0 - - -;
#X obj 306 -201 hsl 90 20 0.5 4 0 1 empty empty empty -2 -8 0 10 -262144
-1 -1 5000 1;
#X obj 309 -61 hsl 90 20 0 700 0 1 empty empty empty -2 -8 0 10 -262144
-1 -1 8900 1;
#X obj 308 -135 hsl 90 20 0 20 0 1 empty empty empty -2 -8 0 10 -262144
-1 -1 1000 1;
#X floatatom 435 -34 5 0 0 0 - - -;
#X obj 438 -64 hsl 90 20 700 6000 0 1 empty empty empty -2 -8 0 10
-262144 -1 -1 8900 1;
#X text 304 -76 Min Freq.;
#X text 433 -79 Max Freq.;
#X obj 350 -31 s wah_min_f;
#X obj 479 -34 s wah_max_f;
#X obj 342 -106 s wah_q;
#X text 302 -152 Q;
#X text 300 -217 Speed;
#X obj 347 -178 s wah_speed;
#X obj 185 -135 r wah_speed;
#X text 188 -118 comment;
#X obj 193 -11 r wah_min_f;
#X obj 192 -70 r wah_max_f;
#X obj 426 -195 r val_1;
#X obj 411 -123 r val_2;
#X obj 352 4 r val_3;
#X obj 479 0 r val_4;
#X connect 0 0 2 0;
#X connect 2 0 1 0;
#X connect 3 0 4 0;
#X connect 4 0 9 0;
#X connect 5 0 3 0;
#X connect 6 0 9 1;
#X connect 7 0 6 0;
#X connect 8 0 2 1;
#X connect 9 0 8 0;
#X connect 10 0 2 2;
#X connect 14 0 11 0;
#X connect 14 0 26 0;
#X connect 15 0 12 0;
#X connect 15 0 21 0;
#X connect 16 0 13 0;
#X connect 16 0 23 0;
#X connect 18 0 17 0;
#X connect 18 0 22 0;
#X connect 27 0 5 0;
#X connect 29 0 7 0;
#X connect 29 0 6 1;
#X connect 29 0 8 1;
#X connect 30 0 6 0;
#X connect 31 0 26 0;
#X connect 32 0 23 0;
#X connect 33 0 21 0;
#X connect 34 0 22 0;
#X restore 273 172 pd wahwah;
#N canvas 453 349 410 210 vibrato 0;
#X obj 9 -49 inlet~;
#X obj 10 139 outlet~;
#X obj 10 -11 delwrite~ vib_delayed_in 50;
#X obj 11 110 vd~ vib_delayed_in;
#X obj 11 21 osc~ 2;
#X obj 12 49 *~ 1;
#X obj 12 76 +~ 2;
#X floatatom 223 30 5 0 0 0 - - -;
#X floatatom 225 110 5 0 0 0 - - -;
#X obj 225 6 hsl 90 20 1 3 0 1 empty empty empty -2 -8 0 10 -262144
-1 -1 8900 1;
#X obj 228 80 hsl 90 20 1 5 0 1 empty empty empty -2 -8 0 10 -262144
-1 -1 5700 1;
#X text 219 -10 Speed;
#X obj 58 20 r vib_speed;
#X obj 267 29 s vib_speed;
#X obj 269 110 s vib_depth;
#X text 223 65 Depth;
#X obj 62 50 r vib_depth;
#X obj 60 75 * 2;
#X obj 349 12 r val_1;
#X obj 346 93 r val_2;
#X connect 0 0 2 0;
#X connect 3 0 1 0;
#X connect 4 0 5 0;
#X connect 5 0 6 0;
#X connect 6 0 3 0;
#X connect 9 0 7 0;
#X connect 9 0 13 0;
#X connect 10 0 8 0;
#X connect 10 0 14 0;
#X connect 12 0 4 0;
#X connect 16 0 5 1;
#X connect 16 0 17 0;
#X connect 17 0 6 1;
#X connect 18 0 13 0;
#X connect 19 0 14 0;
#X restore 353 172 pd vibrato;
#N canvas 227 181 598 321 step_vibrato 0;
#X obj 9 -418 inlet~;
#X obj 14 -215 *~;
#X obj 13 -355 pow 2;
#X obj 13 -155 hip~ 40;
#X obj 13 -127 outlet~;
#X obj 9 -389 delwrite~ svib_delayed_in 2000;
#X obj 13 -186 vd~ svib_delayed_in 2000;
#X obj 209 -331 phasor~ 1;
#X obj 209 -256 abs~;
#X obj 209 -279 *~ 2;
#X obj 209 -199 clip~ 0 0.5;
#X obj 209 -303 -~ 0.5;
#X obj 209 -230 -~ 0.25;
#X text 197 -350 Trapezoid generation;
#X obj 13 -238 line~;
#X msg 13 -264 \$1 100;
#X obj 13 -307 /;
#X obj 39 -333 t b f;
#X floatatom 359 -362 5 0 0 0 - - -;
#X floatatom 361 -282 5 0 0 0 - - -;
#X obj 361 -386 hsl 90 20 0 40 0 1 empty empty empty -2 -8 0 10 -262144
-1 -1 3100 1;
#X text 355 -402 Depth;
#X obj 62 -358 r svib_depth;
#X text 359 -327 Slowdown;
#X obj 364 -309 hsl 90 20 30 0.5 1 1 empty empty empty -2 -8 0 10 -262144
-1 -1 2300 1;
#X obj 405 -282 s svib_slowdown;
#X obj 100 -321 r svib_slowdown;
#X obj 403 -363 s svib_depth;
#X obj 492 -379 r val_1;
#X obj 507 -299 r val_2;
#X connect 0 0 5 0;
#X connect 1 0 6 0;
#X connect 2 0 16 0;
#X connect 3 0 4 0;
#X connect 6 0 3 0;
#X connect 7 0 11 0;
#X connect 8 0 12 0;
#X connect 9 0 8 0;
#X connect 10 0 1 1;
#X connect 11 0 9 0;
#X connect 12 0 10 0;
#X connect 14 0 1 0;
#X connect 15 0 14 0;
#X connect 16 0 15 0;
#X connect 17 0 16 0;
#X connect 17 1 16 1;
#X connect 20 0 18 0;
#X connect 20 0 27 0;
#X connect 22 0 2 0;
#X connect 24 0 19 0;
#X connect 24 0 25 0;
#X connect 26 0 7 0;
#X connect 26 0 17 0;
#X connect 28 0 27 0;
#X connect 29 0 25 0;
#X restore 430 172 pd step_vibrato;
#N canvas 208 186 347 243 fuzz_ring 0;
#X obj 24 63 *~;
#X obj 25 24 inlet~;
#X obj 22 209 outlet~;
#X obj 58 62 osc~;
#X obj 22 154 clip~ -1 1;
#X floatatom 172 97 5 0 0 0 - - -;
#X floatatom 175 175 5 0 0 0 - - -;
#X obj 175 71 hsl 90 20 0.01 1 0 1 empty empty empty -2 -8 0 10 -262144
-1 -1 1800 1;
#X obj 178 145 hsl 90 20 1 40 0 1 empty empty empty -2 -8 0 10 -262144
-1 -1 0 1;
#X obj 23 124 *~ 10;
#X text 173 130 Fuzz;
#X text 169 55 Pitch;
#X obj 211 97 s fr_pitch;
#X obj 219 175 s fr_fuzz;
#X obj 91 61 r fr_pitch;
#X obj 68 125 r fr_fuzz;
#X floatatom 93 88 5 0 0 0 - - -;
#X obj 285 80 r val_1;
#X obj 288 158 r val_2;
#X connect 0 0 9 0;
#X connect 1 0 0 0;
#X connect 3 0 0 1;
#X connect 4 0 2 0;
#X connect 7 0 5 0;
#X connect 7 0 12 0;
#X connect 8 0 6 0;
#X connect 8 0 13 0;
#X connect 9 0 4 0;
#X connect 14 0 3 0;
#X connect 14 0 16 0;
#X connect 15 0 9 1;
#X connect 17 0 12 0;
#X connect 18 0 13 0;
#X restore 533 171 pd fuzz_ring;
#X obj 12 14 loadbang;
#N canvas 59 261 1070 458 serial 0;
#X obj 7 240 list;
#X obj 8 129 convert.ascii2pd CR;
#X msg 137 69 close;
#X msg 136 -8 devices;
#X obj 8 178 route symbol float;
#X obj 8 201 route symbol LF;
#X obj 7 269 unpack f f f f f f;
#X floatatom 137 16 5 0 0 0 - - -;
#X msg 137 43 open \$1;
#X obj 28 387 s val_1;
#X obj 70 344 s val_3;
#X obj 91 322 s val_4;
#X obj 112 296 s volume;
#X obj 7 418 s effect#;
#X text 128 177 These two routes do nothing (since the output is taken
from the rightmost outlet) \, but do some type conversion that prevents
unpack from complaining.;
#X obj 8 16 loadbang;
#X obj 557 4 loadbang;
#X obj 557 28 trigger b b b b b b b;
#X msg 557 255 print &;
#X obj 8 92 comport 3 115200;
#X msg 680 49 print Flanger_Speed_0_0.5_3_Width_0_20_30_Manual_0_0.5_1_Regen_-0.9_0_0.9_?
;
#X msg 618 183 print Vibrato_Speed_1_1.5_3_Depth_1_3_5_?;
#X msg 659 99 print Tremolo_Speed_0.5_1.6_25_Shape_1_1_20_Depth_0_0.3_0.5_?
;
#X msg 598 207 print Step%Vibrato_Depth_0_10_40_Slow_0.5_10_30_?;
#X msg 577 228 print Fuzz%Ring_Pitch_0.01_0.3_1_Fuzz_1_3_40_?;
#X msg 639 134 print Auto%Wah%Wah_Speed_0.5_2.5_4_Q_0_2_15_F.Min_0_200_700_F.Max_700_4000_6000_?
;
#X obj 49 365 s val_2;
#X connect 0 0 6 0;
#X connect 1 0 4 0;
#X connect 2 0 19 0;
#X connect 3 0 19 0;
#X connect 4 2 5 0;
#X connect 5 2 0 0;
#X connect 6 0 13 0;
#X connect 6 1 9 0;
#X connect 6 2 26 0;
#X connect 6 3 10 0;
#X connect 6 4 11 0;
#X connect 6 5 12 0;
#X connect 7 0 8 0;
#X connect 8 0 19 0;
#X connect 15 0 19 0;
#X connect 16 0 17 0;
#X connect 17 0 18 0;
#X connect 17 1 24 0;
#X connect 17 2 23 0;
#X connect 17 3 21 0;
#X connect 17 4 25 0;
#X connect 17 5 22 0;
#X connect 17 6 20 0;
#X connect 18 0 19 0;
#X connect 19 0 1 0;
#X connect 20 0 19 0;
#X connect 21 0 19 0;
#X connect 22 0 19 0;
#X connect 23 0 19 0;
#X connect 24 0 19 0;
#X connect 25 0 19 0;
#X restore 12 101 pd serial;
#X obj 267 18 r effect#;
#X obj 99 65 demultiplex~ . . . . . . .;
#X text 265 66 Effect selection (0 is clean);
#N canvas 967 482 365 134 volume_boost 0;
#X obj 13 11 inlet~;
#X obj 12 88 outlet~;
#X obj 8 53 *~;
#X floatatom 126 77 5 0 0 0 - - -;
#X obj 129 47 hsl 90 20 1 6 1 1 empty empty empty -2 -8 0 10 -262144
-1 -1 0 1;
#X text 123 31 Boost;
#X obj 170 77 s out_boost;
#X obj 38 52 r out_boost;
#X connect 0 0 2 0;
#X connect 2 0 1 0;
#X connect 4 0 3 0;
#X connect 4 0 6 0;
#X connect 7 0 2 1;
#X restore 124 261 pd volume_boost;
#N canvas 936 419 324 123 audio_out 0;
#X obj 16 8 inlet~;
#X obj 7 46 dac~;
#X connect 0 0 1 0;
#X connect 0 0 1 1;
#X restore 99 312 pd audio_out;
#X msg 12 58 \; pd dsp 1;
#X connect 0 0 11 0;
#X connect 1 0 13 0;
#X connect 2 0 11 0;
#X connect 3 0 13 0;
#X connect 4 0 13 0;
#X connect 5 0 13 0;
#X connect 6 0 13 0;
#X connect 7 0 13 0;
#X connect 8 0 15 0;
#X connect 10 0 11 0;
#X connect 11 0 14 0;
#X connect 11 1 1 0;
#X connect 11 2 3 0;
#X connect 11 3 4 0;
#X connect 11 4 5 0;
#X connect 11 5 6 0;
#X connect 11 6 7 0;
#X connect 13 0 14 0;
