#N canvas 343 397 450 273 10;
#N canvas 817 131 832 403 audio_in 1;
#X obj -1595 -1228 outlet~;
#X obj -1597 -1316 adc~;
#X obj -1595 -1271 polygate~ 2 100;
#X msg -1683 -1346 choice \$1;
#X obj -1683 -1427 hradio 15 1 0 3 empty empty empty 0 -8 0 10 -262144
-1 -1 2;
#X msg -1358 -1299 start;
#X msg -1354 -1275 stop;
#X obj -1516 -1306 readsf~ 2;
#X floatatom -1681 -1386 5 0 0 0 - - -;
#X msg -1520 -1403 open samples/guitar_sample_1.wav;
#X msg -1518 -1380 open samples/guitar_sample_2.wav;
#X msg -1507 -1360 open samples/bass_sample_1.wav;
#X msg -1498 -1337 open samples/bass_sample_2.wav;
#X connect 1 0 2 0;
#X connect 2 0 0 0;
#X connect 3 0 2 0;
#X connect 4 0 8 0;
#X connect 5 0 7 0;
#X connect 6 0 7 0;
#X connect 7 0 2 1;
#X connect 8 0 3 0;
#X connect 9 0 7 0;
#X connect 10 0 7 0;
#X connect 11 0 7 0;
#X connect 12 0 7 0;
#X restore 116 34 pd audio_in;
#X obj 119 193 dac~;
#X obj 19 14 tgl 15 0 empty empty empty 17 7 0 10 -262144 -1 -1 1 1
;
#X msg 19 46 \; pd dsp \$1;
#N canvas 1676 1004 1680 968 phaser 0;
#X obj -1097 -663 inlet~;
#X obj -1097 -244 outlet~;
#X obj -645 -502 hsl 128 15 0 10 0 0 empty empty empty -2 -8 0 10 -262144
-1 -1 0 1;
#X obj -677 -405 *~ 2;
#X obj -675 -374 +~ 2;
#X obj -598 -347 *~ 2;
#X obj -599 -311 +~ 2;
#X obj -929 -586 delwrite~ phase2 100;
#X obj -601 -287 vd~ phase2;
#X obj -599 -406 wrap~;
#X obj -647 -477 phasor~;
#X obj -598 -438 +~ 0.5;
#X obj -676 -432 cos~;
#X obj -599 -375 cos~;
#X obj -493 -401 hsl 128 15 0 3 0 0 empty empty empty -2 -8 0 10 -262144
-1 -1 0 1;
#X obj -600 -248 *~ 0.8;
#X obj -797 -279 *~ 0.8;
#X obj -640 -151 s~ output;
#X obj -1054 -288 r~ output;
#X obj -461 -254 hsl 128 15 -0.9 0.9 0 0 empty empty empty -2 -8 0
10 -262144 -1 -1 0 1;
#X text -535 -287 <-- Read from delay line 2;
#X text -541 -218 <-- Read from delay line 1;
#X obj -670 -222 vd~ phase1;
#X obj -925 -650 delwrite~ phase1 100;
#X text -596 -477 <-- Low Frequency Oscillator (LFO);
#X floatatom -486 -502 5 0 0 0 - - -;
#X floatatom -353 -402 5 0 0 0 - - -;
#X floatatom -322 -251 5 0 0 0 - - -;
#X text -436 -505 <-- Speed (try 0.7);
#X text -303 -403 <-- Depth (try 2.4);
#X text -281 -254 <-- Feedback (try -0.3);
#X connect 0 0 1 0;
#X connect 0 0 23 0;
#X connect 0 0 7 0;
#X connect 0 0 15 0;
#X connect 2 0 10 0;
#X connect 2 0 25 0;
#X connect 3 0 4 0;
#X connect 4 0 22 0;
#X connect 5 0 6 0;
#X connect 6 0 8 0;
#X connect 8 0 15 0;
#X connect 8 0 17 0;
#X connect 9 0 13 0;
#X connect 10 0 11 0;
#X connect 10 0 12 0;
#X connect 11 0 9 0;
#X connect 12 0 3 0;
#X connect 13 0 5 0;
#X connect 14 0 3 1;
#X connect 14 0 5 1;
#X connect 14 0 4 1;
#X connect 14 0 6 1;
#X connect 14 0 26 0;
#X connect 15 0 7 0;
#X connect 16 0 23 0;
#X connect 18 0 1 0;
#X connect 19 0 16 1;
#X connect 19 0 15 1;
#X connect 19 0 27 0;
#X connect 22 0 16 0;
#X connect 22 0 17 0;
#X restore 195 105 pd phaser;
#N canvas 872 303 725 502 flanger 1;
#X obj 8 -144 inlet~;
#X obj 7 196 outlet~;
#X obj 34 91 vd~ mod_delay;
#X obj 34 40 +~ 10;
#X obj 35 -64 +~ 1;
#X obj 35 -36 /~ 2;
#X obj 34 -7 *~ 7;
#X obj 35 -92 osc~ 0.5;
#X obj 7 140 +~;
#X obj 7 168 /~ 2;
#X floatatom 264 -68 5 0 0 0 - - -;
#X floatatom 266 12 5 0 0 0 - - -;
#X floatatom 269 180 5 0 0 0 - - -;
#X obj 266 -92 hsl 90 20 0 3 0 0 empty empty empty -2 -8 0 10 -262144
-1 -1 1400 1;
#X obj 269 -18 hsl 90 20 0 30 0 0 empty empty empty -2 -8 0 10 -262144
-1 -1 4900 1;
#X obj 272 66 hsl 90 20 0 1 0 0 empty empty empty -2 -8 0 10 -262144
-1 -1 0 1;
#X text 260 -108 Speed;
#X text 264 -33 Width;
#X text 266 49 Manual;
#X obj 34 -116 delwrite~ mod_delay 50;
#X obj 307 -69 s flanger_speed;
#X obj 310 12 s flanger_width;
#X obj 382 65 r flanger_width;
#X floatatom 382 151 5 0 0 0 - - -;
#X obj 382 122 * -1;
#X obj 382 95 - 30;
#X obj 269 144 *;
#X text 427 102 At minimum width \, manual sweeps the entire delay
space \; at maximum width \, manual does nothing.;
#X obj 308 179 s flanger_manual;
#X obj 95 -93 r flanger_speed;
#X obj 75 -7 r flanger_width;
#X obj 79 39 r flanger_manual;
#X msg 284 114 bang;
#X connect 0 0 8 0;
#X connect 0 0 19 0;
#X connect 2 0 8 1;
#X connect 3 0 2 0;
#X connect 4 0 5 0;
#X connect 5 0 6 0;
#X connect 6 0 3 0;
#X connect 7 0 4 0;
#X connect 8 0 9 0;
#X connect 9 0 1 0;
#X connect 13 0 10 0;
#X connect 13 0 20 0;
#X connect 14 0 11 0;
#X connect 14 0 21 0;
#X connect 15 0 26 0;
#X connect 22 0 25 0;
#X connect 23 0 26 1;
#X connect 23 0 32 0;
#X connect 24 0 23 0;
#X connect 25 0 24 0;
#X connect 26 0 12 0;
#X connect 26 0 28 0;
#X connect 29 0 7 1;
#X connect 30 0 6 1;
#X connect 31 0 3 1;
#X connect 32 0 26 0;
#X restore 101 106 pd flanger;
#X connect 0 0 5 0;
#X connect 2 0 3 0;
#X connect 4 0 1 0;
#X connect 4 0 1 1;
#X connect 5 0 1 1;
#X connect 5 0 1 0;
