#N canvas 343 397 450 273 10;
#N canvas 817 131 832 403 audio_in 1;
#X obj -1595 -1228 outlet~;
#X obj -1597 -1316 adc~;
#X obj -1595 -1271 polygate~ 2 100;
#X msg -1683 -1346 choice \$1;
#X obj -1683 -1427 hradio 15 1 0 3 empty empty empty 0 -8 0 10 -262144
-1 -1 2;
#X msg -1358 -1299 start;
#X msg -1354 -1275 stop;
#X obj -1516 -1306 readsf~ 2;
#X floatatom -1681 -1386 5 0 0 0 - - -;
#X msg -1520 -1403 open samples/guitar_sample_1.wav;
#X msg -1518 -1380 open samples/guitar_sample_2.wav;
#X msg -1507 -1360 open samples/bass_sample_1.wav;
#X msg -1498 -1337 open samples/bass_sample_2.wav;
#X connect 1 0 2 0;
#X connect 2 0 0 0;
#X connect 3 0 2 0;
#X connect 4 0 8 0;
#X connect 5 0 7 0;
#X connect 6 0 7 0;
#X connect 7 0 2 1;
#X connect 8 0 3 0;
#X connect 9 0 7 0;
#X connect 10 0 7 0;
#X connect 11 0 7 0;
#X connect 12 0 7 0;
#X restore 116 34 pd audio_in;
#X obj 119 193 dac~;
#X obj 19 14 tgl 15 0 empty empty empty 17 7 0 10 -262144 -1 -1 1 1
;
#X msg 19 46 \; pd dsp \$1;
#N canvas 1676 1004 1680 968 phaser 0;
#X obj -1097 -663 inlet~;
#X obj -1097 -244 outlet~;
#X obj -645 -502 hsl 128 15 0 10 0 0 empty empty empty -2 -8 0 10 -262144
-1 -1 0 1;
#X obj -677 -405 *~ 2;
#X obj -675 -374 +~ 2;
#X obj -598 -347 *~ 2;
#X obj -599 -311 +~ 2;
#X obj -929 -586 delwrite~ phase2 100;
#X obj -601 -287 vd~ phase2;
#X obj -599 -406 wrap~;
#X obj -647 -477 phasor~;
#X obj -598 -438 +~ 0.5;
#X obj -676 -432 cos~;
#X obj -599 -375 cos~;
#X obj -493 -401 hsl 128 15 0 3 0 0 empty empty empty -2 -8 0 10 -262144
-1 -1 0 1;
#X obj -600 -248 *~ 0.8;
#X obj -797 -279 *~ 0.8;
#X obj -640 -151 s~ output;
#X obj -1054 -288 r~ output;
#X obj -461 -254 hsl 128 15 -0.9 0.9 0 0 empty empty empty -2 -8 0
10 -262144 -1 -1 0 1;
#X text -535 -287 <-- Read from delay line 2;
#X text -541 -218 <-- Read from delay line 1;
#X obj -670 -222 vd~ phase1;
#X obj -925 -650 delwrite~ phase1 100;
#X text -596 -477 <-- Low Frequency Oscillator (LFO);
#X floatatom -486 -502 5 0 0 0 - - -;
#X floatatom -353 -402 5 0 0 0 - - -;
#X floatatom -322 -251 5 0 0 0 - - -;
#X text -436 -505 <-- Speed (try 0.7);
#X text -303 -403 <-- Depth (try 2.4);
#X text -281 -254 <-- Feedback (try -0.3);
#X connect 0 0 1 0;
#X connect 0 0 23 0;
#X connect 0 0 7 0;
#X connect 0 0 15 0;
#X connect 2 0 10 0;
#X connect 2 0 25 0;
#X connect 3 0 4 0;
#X connect 4 0 22 0;
#X connect 5 0 6 0;
#X connect 6 0 8 0;
#X connect 8 0 15 0;
#X connect 8 0 17 0;
#X connect 9 0 13 0;
#X connect 10 0 11 0;
#X connect 10 0 12 0;
#X connect 11 0 9 0;
#X connect 12 0 3 0;
#X connect 13 0 5 0;
#X connect 14 0 3 1;
#X connect 14 0 5 1;
#X connect 14 0 4 1;
#X connect 14 0 6 1;
#X connect 14 0 26 0;
#X connect 15 0 7 0;
#X connect 16 0 23 0;
#X connect 18 0 1 0;
#X connect 19 0 16 1;
#X connect 19 0 15 1;
#X connect 19 0 27 0;
#X connect 22 0 16 0;
#X connect 22 0 17 0;
#X restore 195 105 pd phaser;
#N canvas 405 437 725 502 flanger 1;
#X obj -38 -144 inlet~;
#X obj -38 292 outlet~;
#X obj -11 136 +~ 10;
#X obj -10 32 +~ 1;
#X obj -10 60 /~ 2;
#X obj -11 89 *~ 7;
#X obj -10 4 osc~ 0.5;
#X obj -38 236 +~;
#X obj -38 264 /~ 2;
#X floatatom 211 -97 5 0 0 0 - - -;
#X floatatom 213 -17 5 0 0 0 - - -;
#X floatatom 216 151 5 0 0 0 - - -;
#X obj 213 -121 hsl 90 20 0 3 0 0 empty empty empty -2 -8 0 10 -262144
-1 -1 1700 1;
#X obj 216 -47 hsl 90 20 0 30 0 0 empty empty empty -2 -8 0 10 -262144
-1 -1 0 1;
#X obj 219 37 hsl 90 20 0 1 0 0 empty empty empty -2 -8 0 10 -262144
-1 -1 8900 1;
#X text 207 -137 Speed;
#X text 211 -62 Width;
#X text 213 20 Manual;
#X floatatom 329 122 5 0 0 0 - - -;
#X obj 329 93 * -1;
#X obj 329 66 - 30;
#X obj 216 115 *;
#X text 374 73 At minimum width \, manual sweeps the entire delay space
\; at maximum width \, manual does nothing.;
#X msg 231 85 bang;
#X floatatom 219 231 5 0 0 0 - - -;
#X obj 222 201 hsl 90 20 0 0.9 0 0 empty empty empty -2 -8 0 10 -262144
-1 -1 0 1;
#X text 217 186 Regen;
#X obj -13 -68 +~;
#X obj -13 -39 delwrite~ fl_delayed_in 50;
#X obj -3 234 s~ fl_delayed_out;
#X obj 50 3 r fl_speed;
#X obj 30 89 r fl_width;
#X obj 34 135 r fl_manual;
#X obj 254 -98 s fl_speed;
#X obj 257 -17 s fl_width;
#X obj 329 36 r fl_width;
#X obj 255 150 s fl_manual;
#X obj 263 231 s fl_regen;
#X obj 47 -89 r fl_regen;
#X obj 19 -126 r~ fl_delayed_out;
#X obj 20 -88 *~;
#X obj -11 187 vd~ fl_delayed_in;
#X connect 0 0 7 0;
#X connect 0 0 27 0;
#X connect 2 0 41 0;
#X connect 3 0 4 0;
#X connect 4 0 5 0;
#X connect 5 0 2 0;
#X connect 6 0 3 0;
#X connect 7 0 8 0;
#X connect 8 0 1 0;
#X connect 12 0 9 0;
#X connect 12 0 33 0;
#X connect 13 0 10 0;
#X connect 13 0 34 0;
#X connect 14 0 21 0;
#X connect 18 0 21 1;
#X connect 18 0 23 0;
#X connect 19 0 18 0;
#X connect 20 0 19 0;
#X connect 21 0 11 0;
#X connect 21 0 36 0;
#X connect 23 0 21 0;
#X connect 25 0 24 0;
#X connect 25 0 37 0;
#X connect 27 0 28 0;
#X connect 30 0 6 1;
#X connect 31 0 5 1;
#X connect 32 0 2 1;
#X connect 35 0 20 0;
#X connect 38 0 40 1;
#X connect 39 0 40 0;
#X connect 40 0 27 1;
#X connect 41 0 7 1;
#X connect 41 0 29 0;
#X restore 101 106 pd flanger;
#X connect 0 0 5 0;
#X connect 2 0 3 0;
#X connect 4 0 1 0;
#X connect 4 0 1 1;
#X connect 5 0 1 1;
#X connect 5 0 1 0;
